<svg xmlns="http://www.w3.org/2000/svg" width="112" height="40" viewBox="0 0 112 40" fill="none"><path d="M31.5914 14.9648H27.582C25.439 17.2286 22.3974 18.6268 19.0101 18.6268C15.6229 18.6268 12.5813 17.2286 10.4383 14.9648H6.49801C2.90337 14.9648 0 17.7613 0 21.2235C0 24.6858 2.90337 27.4822 6.49801 27.4822H12.5813V33.7409C12.5813 37.2032 15.4846 39.9996 19.0793 39.9996C22.6739 39.9996 25.5773 37.2032 25.5773 33.7409V27.4822H31.6605C35.2552 27.4822 38.1585 24.6858 38.1585 21.2235C38.0203 17.7613 35.186 14.9648 31.5914 14.9648Z" fill="url(#paint0_linear_317189_39176)"></path><path d="M19.7012 11.5692L25.7844 11.2363C25.4388 11.769 25.024 12.3016 24.5401 12.7677C22.8119 14.4323 20.5307 15.1647 18.2495 14.8983L18.4569 12.7011C19.079 12.6345 19.6321 12.1685 19.7012 11.5692Z" fill="url(#paint1_linear_317189_39176)"></path><path d="M17.0054 11.4364C17.0054 12.1022 17.4893 12.6348 18.1114 12.7014L17.9041 14.8986C16.3141 14.6989 14.7242 13.9665 13.4799 12.768C12.3738 11.7027 11.6134 10.371 11.3369 8.90625L16.9363 11.1034C17.0054 11.2366 17.0054 11.3032 17.0054 11.4364Z" fill="url(#paint2_linear_317189_39176)"></path><path d="M21.9825 5.97709C22.259 5.97709 22.5355 5.91051 22.7429 5.77734L26.3375 10.1052C26.1993 10.4381 26.061 10.7044 25.9228 10.9707L19.6321 11.3036C19.563 10.9707 19.3556 10.6378 19.0791 10.4381L21.4986 5.91051C21.706 5.91051 21.8442 5.97709 21.9825 5.97709Z" fill="url(#paint3_linear_317189_39176)"></path><path d="M26.4757 9.7054L23.0193 5.51075C23.2267 5.31101 23.3649 4.9781 23.3649 4.64519C23.3649 4.44544 23.2958 4.2457 23.2267 4.04595L25.2314 2.91406C26.7522 4.91152 27.167 7.44162 26.4757 9.7054Z" fill="url(#paint4_linear_317189_39176)"></path><path d="M14.655 5.71074C14.7932 5.71074 15.0006 5.64416 15.1388 5.64416L17.6274 10.3715C17.4201 10.5046 17.2818 10.6378 17.1436 10.8375L11.3368 8.57375C11.1986 7.64161 11.2677 6.70947 11.4751 5.8439L13.4798 5.04492C13.6872 5.44441 14.1019 5.71074 14.655 5.71074Z" fill="url(#paint5_linear_317189_39176)"></path><path d="M18.8717 10.2378C18.7334 10.1712 18.526 10.1046 18.3186 10.1046C18.1804 10.1046 18.0421 10.1046 17.9039 10.1712L15.4153 5.44386C15.7609 5.24412 15.9683 4.91121 15.9683 4.51172L20.669 4.64488C20.669 5.04437 20.8764 5.44386 21.222 5.71019L18.8717 10.2378Z" fill="url(#paint6_linear_317189_39176)"></path><path d="M23.0194 3.77957C22.7429 3.51324 22.3972 3.31349 21.9825 3.31349C21.3603 3.31349 20.8073 3.77957 20.669 4.31222L15.9683 4.17906C15.8992 3.84615 15.6918 3.51324 15.3462 3.31349L17.0744 0.250732C19.6321 -0.415086 22.5355 0.250732 24.5402 2.1816C24.6784 2.31477 24.8858 2.51451 25.0241 2.64768L23.0194 3.77957Z" fill="url(#paint7_linear_317189_39176)"></path><path d="M15.0695 3.17942C14.9312 3.11284 14.793 3.11284 14.6547 3.11284C13.8943 3.11284 13.2721 3.71208 13.2721 4.44448C13.2721 4.51106 13.2721 4.64422 13.3413 4.7108L11.5439 5.4432C11.8896 4.24473 12.5809 3.11284 13.5487 2.1807C14.4473 1.31513 15.4842 0.715897 16.5903 0.316406L15.0695 3.17942Z" fill="url(#paint8_linear_317189_39176)"></path><path d="M45.417 33.4075V26.8824C45.417 26.6827 45.4861 26.5495 45.5553 26.4164C45.6935 26.2832 45.8318 26.2832 46.0391 26.2832H49.4264C49.772 26.2832 49.9794 26.4164 49.9794 26.7493C49.9794 26.8824 49.9794 26.949 49.9103 27.0822C49.8412 27.1488 49.8412 27.2153 49.8412 27.2819H46.523V29.4125H49.0808C49.4264 29.4125 49.6338 29.5457 49.6338 29.8786C49.6338 30.0118 49.6338 30.0784 49.5647 30.2115C49.4955 30.2781 49.4955 30.3447 49.4955 30.4113H46.523V33.474H45.417V33.4075Z" fill="url(#paint9_linear_317189_39176)"></path><path d="M62.7681 30.7442C62.4916 30.7442 62.215 30.7442 62.0077 30.7442C61.8003 30.7442 61.662 30.7442 61.5238 30.6776V33.4075H60.4177V26.8824C60.4177 26.4829 60.6251 26.2832 61.109 26.2832H62.9063C63.3211 26.2832 63.7359 26.3498 64.0124 26.4829C64.358 26.6161 64.6345 26.7493 64.8419 26.949C65.0493 27.1488 65.1875 27.4151 65.3258 27.6814C65.4641 27.9477 65.4641 28.2141 65.4641 28.547C65.4641 28.9465 65.3258 29.346 65.1184 29.7455C64.911 30.0784 64.5654 30.4113 64.0815 30.5444C64.2198 30.7442 64.4271 30.9439 64.6345 31.2103C64.8419 31.4766 64.9802 31.7429 65.1875 32.0092C65.3949 32.2756 65.5332 32.5419 65.6714 32.8082C65.8097 33.0745 65.9479 33.2743 66.0171 33.474H64.6345C64.5654 33.3409 64.4963 33.2077 64.358 32.9414C64.2198 32.7416 64.0815 32.4753 63.9432 32.209C63.805 31.9427 63.5976 31.6763 63.4593 31.41C63.252 31.1437 63.1137 30.9439 62.9063 30.7442C62.8372 30.7442 62.8372 30.7442 62.7681 30.7442C62.7681 30.7442 62.8372 30.7442 62.7681 30.7442ZM64.358 28.4804C64.358 28.0809 64.2198 27.8146 63.9432 27.5483C63.6667 27.2819 63.252 27.1488 62.6989 27.1488H61.4546V29.7455C61.5238 29.7455 61.5929 29.7455 61.7312 29.812C61.8694 29.812 62.1459 29.812 62.4224 29.812C62.7681 29.812 63.0446 29.812 63.252 29.7455C63.4593 29.6789 63.6667 29.6123 63.805 29.4791C63.9432 29.346 64.0815 29.2128 64.1506 29.0796C64.2889 28.8133 64.358 28.6801 64.358 28.4804Z" fill="url(#paint10_linear_317189_39176)"></path><path d="M68.8514 27.2155H66.9158C66.5702 27.2155 66.3628 27.0824 66.3628 26.7495C66.3628 26.6163 66.3628 26.5497 66.4319 26.4165C66.501 26.35 66.501 26.2834 66.501 26.2168H72.1004C72.446 26.2168 72.6534 26.35 72.6534 26.6829C72.6534 26.816 72.6534 26.8826 72.5843 27.0158C72.5152 27.0824 72.5152 27.1489 72.5152 27.2155H70.0266V33.4076H68.8514" fill="url(#paint11_linear_317189_39176)"></path><path d="M73.7596 26.7495C73.7596 26.5497 73.8287 26.4165 73.8978 26.35C74.0361 26.2834 74.1743 26.2168 74.3817 26.2168C74.52 26.2168 74.5891 26.2168 74.7273 26.2834C74.7965 26.2834 74.8656 26.35 74.9347 26.35V30.1451C74.9347 30.5446 75.0039 30.8775 75.073 31.2104C75.1421 31.5433 75.2804 31.8097 75.4186 32.0094C75.5569 32.2092 75.8334 32.4089 76.0408 32.4755C76.3173 32.6086 76.6629 32.6752 77.0777 32.6752C77.4925 32.6752 77.8381 32.6086 78.0455 32.4755C78.322 32.3423 78.5294 32.2092 78.6676 32.0094C78.8059 31.8097 78.9441 31.5433 79.0133 31.2104C79.0824 30.8775 79.1515 30.5446 79.1515 30.1451V26.7495C79.1515 26.4165 79.3589 26.2168 79.7737 26.2168C79.9119 26.2168 80.0502 26.2168 80.1193 26.2834C80.1884 26.2834 80.2576 26.35 80.3267 26.35V30.2117C80.3267 31.3436 80.0502 32.1426 79.4972 32.6752C78.9441 33.2079 78.1146 33.5408 77.0086 33.5408C75.9025 33.5408 75.073 33.2745 74.52 32.6752C73.9669 32.1426 73.6904 31.277 73.6904 30.2117V26.7495H73.7596Z" fill="url(#paint12_linear_317189_39176)"></path><path d="M83.7139 26.4831C83.783 26.5497 83.9213 26.7494 84.0595 26.9492C84.1978 27.1489 84.4052 27.4153 84.6126 27.6816C84.8199 27.9479 85.0273 28.2808 85.3038 28.6137C85.5112 28.9466 85.7877 29.2796 86.0642 29.679C86.3407 30.012 86.5481 30.4114 86.7555 30.7444C86.9629 31.0773 87.1703 31.4102 87.3777 31.6765V26.7495C87.3777 26.5497 87.4468 26.4165 87.5159 26.35C87.6542 26.2834 87.7924 26.2168 87.9307 26.2168C88.0689 26.2168 88.2072 26.2168 88.2763 26.2834C88.3454 26.2834 88.4146 26.35 88.4837 26.35V33.4076H87.2394C87.032 33.1413 86.8246 32.875 86.6173 32.5421C86.4099 32.2092 86.1334 31.8762 85.926 31.4768C85.7186 31.1438 85.4421 30.7444 85.1656 30.4114C84.8891 30.0785 84.6817 29.679 84.4743 29.3461C84.2669 29.0132 84.0595 28.7469 83.8521 28.414C83.6448 28.1477 83.5065 27.8813 83.3682 27.7482V33.4076H82.2622V26.816C82.2622 26.6829 82.3313 26.5497 82.4696 26.4165C82.6078 26.2834 82.7461 26.2168 83.0226 26.2168C83.23 26.2168 83.3683 26.2168 83.5065 26.2834C83.5756 26.35 83.6448 26.4165 83.7139 26.4831Z" fill="url(#paint13_linear_317189_39176)"></path><path d="M91.6635 30.2115V32.4087H95.3964V33.4075H90.4883V26.8824C90.4883 26.6827 90.5574 26.5495 90.6265 26.4164C90.7648 26.2832 90.9031 26.2832 91.1104 26.2832H94.8433C95.189 26.2832 95.3964 26.4164 95.3964 26.7493C95.3964 26.8824 95.3964 26.949 95.3272 27.0822C95.2581 27.1488 95.2581 27.2153 95.2581 27.2819H91.5943V29.2794H94.7051C95.0507 29.2794 95.2581 29.4125 95.2581 29.7455C95.2581 29.8786 95.2581 29.9452 95.189 30.0784C95.1198 30.1449 95.1199 30.2115 95.1199 30.2781H91.6635V30.2115Z" fill="url(#paint14_linear_317189_39176)"></path><path d="M101.687 33.4078C101.894 32.8086 102.171 32.2093 102.447 31.6101C102.724 31.0109 102.931 30.4116 103.208 29.8124C103.484 29.2132 103.692 28.6805 103.899 28.2144C104.106 27.6818 104.314 27.2823 104.452 26.9494C104.59 26.6165 104.729 26.4167 104.936 26.3501C105.074 26.217 105.282 26.1504 105.558 26.1504C105.766 26.1504 105.973 26.217 106.042 26.2836C106.18 26.3501 106.249 26.4167 106.319 26.4833C106.457 26.683 106.595 27.016 106.802 27.3489C107.01 27.7484 107.148 28.1478 107.355 28.6139C107.563 29.08 107.77 29.5461 107.978 30.0121C108.185 30.4782 108.392 30.9443 108.531 31.4103C108.738 31.8764 108.876 32.2759 109.015 32.6088C109.153 32.9417 109.291 33.2081 109.36 33.4078H108.116C108.047 33.3412 108.047 33.2081 107.978 33.0749C107.909 32.9417 107.839 32.8086 107.77 32.6088C107.701 32.4091 107.632 32.2759 107.563 32.0762C107.494 31.8764 107.425 31.7433 107.355 31.5435H103.623C103.484 31.943 103.346 32.2759 103.208 32.6088C103.07 32.9417 103 33.2081 102.931 33.4078H101.687ZM105.42 27.1491C105.351 27.2823 105.213 27.482 105.143 27.7484C105.005 28.0147 104.936 28.281 104.798 28.5473C104.66 28.8802 104.521 29.1466 104.383 29.4795C104.245 29.8124 104.106 30.1453 103.968 30.4782H106.941C106.802 30.1453 106.664 29.8124 106.526 29.4795C106.388 29.1466 106.249 28.8137 106.111 28.4808C105.973 28.1478 105.835 27.8815 105.766 27.6152C105.558 27.482 105.489 27.2823 105.42 27.1491Z" fill="url(#paint15_linear_317189_39176)"></path><path d="M110.466 26.7495C110.466 26.5497 110.535 26.4165 110.604 26.35C110.743 26.2834 110.881 26.2168 111.088 26.2168C111.226 26.2168 111.295 26.2168 111.433 26.2834C111.571 26.2834 111.641 26.35 111.641 26.35V33.4076H110.466V26.7495Z" fill="url(#paint16_linear_317189_39176)"></path><path d="M99.6133 32.4756C99.6133 33.0749 99.1294 33.6075 98.4381 33.6075C97.816 33.6075 97.2629 33.1415 97.2629 32.4756C97.2629 31.8098 97.7468 31.3438 98.4381 31.3438C99.0603 31.3438 99.6133 31.8764 99.6133 32.4756Z" fill="url(#paint17_linear_317189_39176)"></path><path d="M53.6433 10.7031C53.7816 10.7031 53.8507 10.7697 53.8507 10.9029V12.5008C53.8507 12.634 53.7816 12.7006 53.6433 12.7006H48.0439V15.497H53.1594C53.2977 15.497 53.4359 15.5636 53.4359 15.6968V17.2281C53.4359 17.3613 53.3668 17.4279 53.1594 17.4279H48.0439V20.0912H53.6433C53.7816 20.0912 53.8507 20.1577 53.8507 20.2909V21.8889C53.8507 22.022 53.7816 22.0886 53.6433 22.0886H45.901C45.7627 22.0886 45.6936 22.022 45.6936 21.8223V10.9029C45.6936 10.7697 45.7627 10.7031 45.901 10.7031H53.6433Z" fill="url(#paint18_linear_317189_39176)"></path><path d="M60.1413 10.7033C60.2796 10.7033 60.2796 10.7699 60.3487 10.9696L62.7682 19.9582C62.9064 20.2911 62.9064 20.4242 63.1138 20.4242C63.3903 20.4242 63.3903 20.2911 63.5286 19.9582L65.9481 10.903C66.0172 10.7033 66.0172 10.6367 66.1554 10.6367H68.1601C68.2984 10.6367 68.3675 10.7033 68.3675 10.903L65.6716 20.5574C65.2568 22.1554 64.9803 22.3551 63.1138 22.3551C61.3165 22.3551 61.04 22.2219 60.5561 20.5574L57.9292 10.9696C57.8601 10.7699 57.9292 10.7033 58.1366 10.7033H60.1413Z" fill="url(#paint19_linear_317189_39176)"></path><path d="M80.7414 10.7031C80.8797 10.7031 80.9488 10.7697 80.9488 10.9029V12.5008C80.9488 12.634 80.8797 12.7006 80.7414 12.7006H75.1421V15.497H80.2575C80.3958 15.497 80.5341 15.5636 80.5341 15.6968V17.2281C80.5341 17.3613 80.4649 17.4279 80.2575 17.4279H75.1421V20.0912H80.7414C80.8797 20.0912 80.9488 20.1577 80.9488 20.2909V21.8889C80.9488 22.022 80.8797 22.0886 80.7414 22.0886H72.9991C72.8609 22.0886 72.7917 22.022 72.7917 21.8223V10.9029C72.7917 10.7697 72.8609 10.7031 72.9991 10.7031H80.7414Z" fill="url(#paint20_linear_317189_39176)"></path><path d="M94.7744 14.4319C94.7744 16.6957 94.1522 17.5612 92.424 17.8941L95.0509 21.9556C95.1891 22.0888 95.12 22.2219 94.8435 22.2219H92.9079C92.5623 22.2219 92.424 22.0888 92.2858 21.889L89.7281 18.0273H88.2764V21.9556C88.2764 22.1554 88.2072 22.2219 88.069 22.2219H86.1334C85.926 22.2219 85.926 22.1554 85.926 21.9556V10.9696C85.926 10.8365 85.9952 10.7699 86.1334 10.7699C87.516 10.6367 88.9677 10.6367 90.2811 10.6367C93.5992 10.6367 94.7744 11.5023 94.7744 14.4319ZM88.2764 12.7008V16.2962H89.9354C91.8019 16.2962 92.2858 16.0298 92.2858 14.565C92.2858 13.1002 91.8019 12.7008 89.9354 12.7008H88.2764Z" fill="url(#paint21_linear_317189_39176)"></path><path d="M55.164 32.2095L58.6204 32.0098C58.413 32.3427 58.2056 32.609 57.9291 32.8753C56.9613 33.8075 55.6479 34.207 54.4036 34.0738L54.4727 32.8087C54.8183 32.8087 55.0948 32.5424 55.164 32.2095Z" fill="url(#paint22_linear_317189_39176)"></path><path d="M53.6432 32.1443C53.6432 32.4772 53.9197 32.8101 54.2654 32.8767L54.1962 34.1418C53.2976 34.0086 52.3989 33.6091 51.7076 32.9433C51.0855 32.3441 50.6707 31.5451 50.5325 30.7461L53.7123 31.9446C53.6432 32.0111 53.6432 32.0777 53.6432 32.1443Z" fill="url(#paint23_linear_317189_39176)"></path><path d="M56.4774 29.014C56.6156 29.014 56.823 28.9474 56.8922 28.8809L58.8969 31.3444C58.8277 31.5441 58.7586 31.6773 58.6895 31.877L55.164 32.0768C55.164 31.877 55.0257 31.6773 54.8875 31.6107L56.27 29.0806C56.27 29.014 56.3391 29.014 56.4774 29.014Z" fill="url(#paint24_linear_317189_39176)"></path><path d="M58.9661 31.1448L57.0305 28.8144C57.1688 28.6812 57.2379 28.5481 57.2379 28.3483C57.2379 28.2152 57.2379 28.1486 57.1688 28.0154L58.2748 27.3496C59.1735 28.4149 59.3809 29.8797 58.9661 31.1448Z" fill="url(#paint25_linear_317189_39176)"></path><path d="M52.2607 28.88C52.3299 28.88 52.4681 28.88 52.5372 28.8134L53.9198 31.4766C53.7815 31.5432 53.7124 31.6098 53.6433 31.743L50.3943 30.4779C50.3252 29.9453 50.3252 29.4126 50.4634 28.9465L51.5695 28.4805C51.7077 28.7468 51.9842 28.88 52.2607 28.88Z" fill="url(#paint26_linear_317189_39176)"></path><path d="M54.6802 31.4108C54.6111 31.3442 54.4728 31.3442 54.4037 31.3442C54.3346 31.3442 54.1963 31.3442 54.1272 31.4108L52.7446 28.7475C52.952 28.6143 53.0211 28.4146 53.0903 28.2148L55.7171 28.2814C55.7171 28.5478 55.8554 28.7475 56.0628 28.8807L54.6802 31.4108Z" fill="url(#paint27_linear_317189_39176)"></path><path d="M57.0305 27.8156C56.8923 27.6824 56.6849 27.5493 56.4775 27.5493C56.1319 27.5493 55.7862 27.8156 55.7171 28.1485L53.0903 28.0819C53.0903 27.8822 52.952 27.6824 52.7446 27.5493L53.7124 25.8181C55.1641 25.4852 56.754 25.8181 57.9292 26.95C57.9983 27.0166 58.1366 27.1498 58.2057 27.2164L57.0305 27.8156Z" fill="url(#paint28_linear_317189_39176)"></path><path d="M52.5372 27.4831C52.4681 27.4831 52.399 27.4165 52.2607 27.4165C51.8459 27.4165 51.5003 27.7494 51.5003 28.1489C51.5003 28.2155 51.5003 28.2821 51.5003 28.2821L50.4634 28.6816C50.6708 28.0157 51.0164 27.3499 51.5694 26.8173C52.0533 26.3512 52.6755 25.9517 53.2976 25.752L52.5372 27.4831Z" fill="url(#paint29_linear_317189_39176)"></path><defs><linearGradient id="paint0_linear_317189_39176" x1="19.0793" y1="14.9648" x2="19.0793" y2="39.9996" gradientUnits="userSpaceOnUse"><stop stop-color="#00B3BA"></stop><stop offset="1" stop-color="#7FC389"></stop></linearGradient><linearGradient id="paint1_linear_317189_39176" x1="22.017" y1="11.2363" x2="22.017" y2="14.9517" gradientUnits="userSpaceOnUse"><stop stop-color="#00B3BA"></stop><stop offset="1" stop-color="#7FC389"></stop></linearGradient><linearGradient id="paint2_linear_317189_39176" x1="14.7242" y1="8.90625" x2="14.7242" y2="14.8986" gradientUnits="userSpaceOnUse"><stop stop-color="#00B3BA"></stop><stop offset="1" stop-color="#7FC389"></stop></linearGradient><linearGradient id="paint3_linear_317189_39176" x1="22.7083" y1="5.77734" x2="22.7083" y2="11.3036" gradientUnits="userSpaceOnUse"><stop stop-color="#00B3BA"></stop><stop offset="1" stop-color="#7FC389"></stop></linearGradient><linearGradient id="paint4_linear_317189_39176" x1="24.9095" y1="2.91406" x2="24.9095" y2="9.7054" gradientUnits="userSpaceOnUse"><stop stop-color="#00B3BA"></stop><stop offset="1" stop-color="#7FC389"></stop></linearGradient><linearGradient id="paint5_linear_317189_39176" x1="14.4462" y1="5.04492" x2="14.4462" y2="10.8375" gradientUnits="userSpaceOnUse"><stop stop-color="#00B3BA"></stop><stop offset="1" stop-color="#7FC389"></stop></linearGradient><linearGradient id="paint6_linear_317189_39176" x1="18.3186" y1="4.51172" x2="18.3186" y2="10.2378" gradientUnits="userSpaceOnUse"><stop stop-color="#00B3BA"></stop><stop offset="1" stop-color="#7FC389"></stop></linearGradient><linearGradient id="paint7_linear_317189_39176" x1="20.1851" y1="0" x2="20.1851" y2="4.31222" gradientUnits="userSpaceOnUse"><stop stop-color="#00B3BA"></stop><stop offset="1" stop-color="#7FC389"></stop></linearGradient><linearGradient id="paint8_linear_317189_39176" x1="14.0671" y1="0.316406" x2="14.0671" y2="5.4432" gradientUnits="userSpaceOnUse"><stop stop-color="#00B3BA"></stop><stop offset="1" stop-color="#7FC389"></stop></linearGradient><linearGradient id="paint9_linear_317189_39176" x1="47.6982" y1="26.2832" x2="47.6982" y2="33.474" gradientUnits="userSpaceOnUse"><stop stop-color="#00B3BA"></stop><stop offset="1" stop-color="#7FC389"></stop></linearGradient><linearGradient id="paint10_linear_317189_39176" x1="63.2174" y1="26.2832" x2="63.2174" y2="33.474" gradientUnits="userSpaceOnUse"><stop stop-color="#00B3BA"></stop><stop offset="1" stop-color="#7FC389"></stop></linearGradient><linearGradient id="paint11_linear_317189_39176" x1="69.5081" y1="26.2168" x2="69.5081" y2="33.4076" gradientUnits="userSpaceOnUse"><stop stop-color="#00B3BA"></stop><stop offset="1" stop-color="#7FC389"></stop></linearGradient><linearGradient id="paint12_linear_317189_39176" x1="77.0086" y1="26.2168" x2="77.0086" y2="33.5408" gradientUnits="userSpaceOnUse"><stop stop-color="#00B3BA"></stop><stop offset="1" stop-color="#7FC389"></stop></linearGradient><linearGradient id="paint13_linear_317189_39176" x1="85.373" y1="26.2168" x2="85.373" y2="33.4076" gradientUnits="userSpaceOnUse"><stop stop-color="#00B3BA"></stop><stop offset="1" stop-color="#7FC389"></stop></linearGradient><linearGradient id="paint14_linear_317189_39176" x1="92.9423" y1="26.2832" x2="92.9423" y2="33.4075" gradientUnits="userSpaceOnUse"><stop stop-color="#00B3BA"></stop><stop offset="1" stop-color="#7FC389"></stop></linearGradient><linearGradient id="paint15_linear_317189_39176" x1="105.524" y1="26.1504" x2="105.524" y2="33.4078" gradientUnits="userSpaceOnUse"><stop stop-color="#00B3BA"></stop><stop offset="1" stop-color="#7FC389"></stop></linearGradient><linearGradient id="paint16_linear_317189_39176" x1="111.053" y1="26.2168" x2="111.053" y2="33.4076" gradientUnits="userSpaceOnUse"><stop stop-color="#00B3BA"></stop><stop offset="1" stop-color="#7FC389"></stop></linearGradient><linearGradient id="paint17_linear_317189_39176" x1="98.4381" y1="31.3438" x2="98.4381" y2="33.6075" gradientUnits="userSpaceOnUse"><stop stop-color="#00B3BA"></stop><stop offset="1" stop-color="#7FC389"></stop></linearGradient><linearGradient id="paint18_linear_317189_39176" x1="49.7721" y1="10.7031" x2="49.7721" y2="22.0886" gradientUnits="userSpaceOnUse"><stop stop-color="#00B3BA"></stop><stop offset="1" stop-color="#7FC389"></stop></linearGradient><linearGradient id="paint19_linear_317189_39176" x1="63.1354" y1="10.6367" x2="63.1354" y2="22.3551" gradientUnits="userSpaceOnUse"><stop stop-color="#00B3BA"></stop><stop offset="1" stop-color="#7FC389"></stop></linearGradient><linearGradient id="paint20_linear_317189_39176" x1="76.8703" y1="10.7031" x2="76.8703" y2="22.0886" gradientUnits="userSpaceOnUse"><stop stop-color="#00B3BA"></stop><stop offset="1" stop-color="#7FC389"></stop></linearGradient><linearGradient id="paint21_linear_317189_39176" x1="90.523" y1="10.6367" x2="90.523" y2="22.2219" gradientUnits="userSpaceOnUse"><stop stop-color="#00B3BA"></stop><stop offset="1" stop-color="#7FC389"></stop></linearGradient><linearGradient id="paint22_linear_317189_39176" x1="56.512" y1="32.0098" x2="56.512" y2="34.0988" gradientUnits="userSpaceOnUse"><stop stop-color="#00B3BA"></stop><stop offset="1" stop-color="#7FC389"></stop></linearGradient><linearGradient id="paint23_linear_317189_39176" x1="52.3989" y1="30.7461" x2="52.3989" y2="34.1418" gradientUnits="userSpaceOnUse"><stop stop-color="#00B3BA"></stop><stop offset="1" stop-color="#7FC389"></stop></linearGradient><linearGradient id="paint24_linear_317189_39176" x1="56.8922" y1="28.8809" x2="56.8922" y2="32.0768" gradientUnits="userSpaceOnUse"><stop stop-color="#00B3BA"></stop><stop offset="1" stop-color="#7FC389"></stop></linearGradient><linearGradient id="paint25_linear_317189_39176" x1="58.1008" y1="27.3496" x2="58.1008" y2="31.1448" gradientUnits="userSpaceOnUse"><stop stop-color="#00B3BA"></stop><stop offset="1" stop-color="#7FC389"></stop></linearGradient><linearGradient id="paint26_linear_317189_39176" x1="52.1343" y1="28.4805" x2="52.1343" y2="31.743" gradientUnits="userSpaceOnUse"><stop stop-color="#00B3BA"></stop><stop offset="1" stop-color="#7FC389"></stop></linearGradient><linearGradient id="paint27_linear_317189_39176" x1="54.4037" y1="28.2148" x2="54.4037" y2="31.4108" gradientUnits="userSpaceOnUse"><stop stop-color="#00B3BA"></stop><stop offset="1" stop-color="#7FC389"></stop></linearGradient><linearGradient id="paint28_linear_317189_39176" x1="55.4752" y1="25.6953" x2="55.4752" y2="28.1485" gradientUnits="userSpaceOnUse"><stop stop-color="#00B3BA"></stop><stop offset="1" stop-color="#7FC389"></stop></linearGradient><linearGradient id="paint29_linear_317189_39176" x1="51.8805" y1="25.752" x2="51.8805" y2="28.6816" gradientUnits="userSpaceOnUse"><stop stop-color="#00B3BA"></stop><stop offset="1" stop-color="#7FC389"></stop></linearGradient></defs></svg>